{
  "accessors": [
    {
      "bufferView": 2,
      "componentType": 5126,
      "count": 23732,
      "max": [
        1.3664692640304565,
        2.8426129817962646,
        1.756805181503296
      ],
      "min": [
        -1.3664692640304565,
        0.001777983969077468,
        -1.4463235139846802
      ],
      "type": "VEC3"
    },
    {
      "bufferView": 2,
      "byteOffset": 284784,
      "componentType": 5126,
      "count": 23732,
      "max": [
        1.0,
        0.9999912977218628,
        1.0
      ],
      "min": [
        -1.0,
        -1.0,
        -1.0
      ],
      "type": "VEC3"
    },
    {
      "bufferView": 1,
      "componentType": 5126,
      "count": 23732,
      "max": [
        0.8750001192092896,
        1.0000001192092896
      ],
      "min": [
        0.125,
        -2.473825588822365e-10
      ],
      "type": "VEC2"
    },
    {
      "bufferView": 0,
      "componentType": 5125,
      "count": 90624,
      "type": "SCALAR"
    },
    {
      "bufferView": 2,
      "byteOffset": 569568,
      "componentType": 5126,
      "count": 2591,
      "max": [
        0.4752610921859741,
        1.9738754034042358,
        1.731637954711914
      ],
      "min": [
        -0.47526100277900696,
        1.4326072931289673,
        1.3426762819290161
      ],
      "type": "VEC3"
    },
    {
      "bufferView": 2,
      "byteOffset": 600660,
      "componentType": 5126,
      "count": 2591,
      "max": [
        0.9998956918716431,
        0.9995483160018921,
        0.9999488592147827
      ],
      "min": [
        -0.9998956918716431,
        -0.995074450969696,
        -0.9996461868286133
      ],
      "type": "VEC3"
    },
    {
      "bufferView": 1,
      "byteOffset": 189856,
      "componentType": 5126,
      "count": 2591,
      "max": [
        0.9722223281860352,
        1.0000001192092896
      ],
      "min": [
        0.027777783572673798,
        0.0
      ],
      "type": "VEC2"
    },
    {
      "bufferView": 0,
      "byteOffset": 362496,
      "componentType": 5125,
      "count": 10752,
      "type": "SCALAR"
    }
  ],
  "asset": {
    "extras": {
      "author": "mistour (https://sketchfab.com/mistour)",
      "license": "CC-BY-4.0 (http://creativecommons.org/licenses/by/4.0/)",
      "source": "https://sketchfab.com/3d-models/piggy-bank-d4387ba82d8f4dda85826ee5815640b9",
      "title": "Piggy Bank"
    },
    "generator": "Sketchfab-12.66.0",
    "version": "2.0"
  },
  "bufferViews": [
    {
      "buffer": 0,
      "byteLength": 405504,
      "name": "floatBufferViews",
      "target": 34963
    },
    {
      "buffer": 0,
      "byteLength": 210584,
      "byteOffset": 405504,
      "byteStride": 8,
      "name": "floatBufferViews",
      "target": 34962
    },
    {
      "buffer": 0,
      "byteLength": 631752,
      "byteOffset": 616088,
      "byteStride": 12,
      "name": "floatBufferViews",
      "target": 34962
    }
  ],
  "buffers": [
    {
      "byteLength": 1247840,
      "uri": "scene.bin"
    }
  ],
  "materials": [
    {
      "doubleSided": true,
      "name": "Material",
      "pbrMetallicRoughness": {
        "baseColorFactor": [
          0.8018125057220459,
          0.16835534582838452,
          0.6733795674889024,
          1.0
        ],
        "metallicFactor": 0.4268125057220459,
        "roughnessFactor": 0.55
      }
    },
    {
      "doubleSided": true,
      "name": "Material.001",
      "pbrMetallicRoughness": {
        "baseColorFactor": [
          0.0463242992283864,
          0.0463242992283864,
          0.0463242992283864,
          1.0
        ],
        "roughnessFactor": 0.2705625057220459
      }
    }
  ],
  "meshes": [
    {
      "name": "Object_0",
      "primitives": [
        {
          "attributes": {
            "NORMAL": 1,
            "POSITION": 0,
            "TEXCOORD_0": 2
          },
          "indices": 3,
          "material": 0,
          "mode": 4
        }
      ]
    },
    {
      "name": "Object_1",
      "primitives": [
        {
          "attributes": {
            "NORMAL": 5,
            "POSITION": 4,
            "TEXCOORD_0": 6
          },
          "indices": 7,
          "material": 1,
          "mode": 4
        }
      ]
    }
  ],
  "nodes": [
    {
      "children": [
        1
      ],
      "matrix": [
        1.0,
        0.0,
        0.0,
        0.0,
        0.0,
        2.220446049250313e-16,
        -1.0,
        0.0,
        0.0,
        1.0,
        2.220446049250313e-16,
        0.0,
        0.0,
        0.0,
        0.0,
        1.0
      ],
      "name": "Sketchfab_model"
    },
    {
      "children": [
        2
      ],
      "name": "root"
    },
    {
      "children": [
        3
      ],
      "matrix": [
        1.0,
        0.0,
        0.0,
        0.0,
        0.0,
        2.220446049250313e-16,
        1.0,
        0.0,
        0.0,
        -1.0,
        2.220446049250313e-16,
        0.0,
        0.0,
        0.0,
        0.0,
        1.0
      ],
      "name": "GLTF_SceneRootNode"
    },
    {
      "children": [
        4,
        5
      ],
      "matrix": [
        1.0,
        0.0,
        0.0,
        0.0,
        0.0,
        1.0,
        0.0,
        0.0,
        0.0,
        0.0,
        1.0,
        0.0,
        0.0,
        0.0,
        0.0005963612347841263,
        1.0
      ],
      "name": "Cube_0"
    },
    {
      "mesh": 0,
      "name": "Object_4"
    },
    {
      "mesh": 1,
      "name": "Object_5"
    }
  ],
  "scene": 0,
  "scenes": [
    {
      "name": "Sketchfab_Scene",
      "nodes": [
        0
      ]
    }
  ]
}
